<svg enable-background="new 0 0 24 24" viewBox="0 0 24 24" xmlns="http://www.w3.org/2000/svg"><path d="m7 0c-.553 0-1 .447-1 1v8c0 .552-.448 1-1 1h-2c-.552 0-1-.448-1-1v-8c0-.553-.447-1-1-1s-1 .447-1 1v8c0 1.654 1.346 3 3 3v11c0 .553.447 1 1 1s1-.447 1-1v-11c1.654 0 3-1.346 3-3v-8c0-.553-.447-1-1-1zm-3 9c.553 0 1-.447 1-1v-7c0-.553-.447-1-1-1s-1 .447-1 1v7c0 .553.447 1 1 1zm10-9c-2.757 0-5 2.243-5 5v10c0 .553.447 1 1 1h3v7c0 .553.447 1 1 1s1-.447 1-1v-22c0-.553-.447-1-1-1zm-1 14h-2v-9c0-1.304.836-2.416 2-2.829zm7-14c-2.243 0-4 2.636-4 6 0 2.844 1.257 5.16 3 5.811v11.189c0 .553.447 1 1 1s1-.447 1-1v-11.189c1.743-.651 3-2.967 3-5.811 0-3.364-1.757-6-4-6zm0 10c-.944 0-2-1.711-2-4s1.056-4 2-4 2 1.711 2 4-1.056 4-2 4z"/></svg>